<?xml version="1.0" standalone="no"?>
<!DOCTYPE svg PUBLIC "-//W3C//DTD SVG 20010904//EN"
 "http://www.w3.org/TR/2001/REC-SVG-20010904/DTD/svg10.dtd">
<svg version="1.0" xmlns="http://www.w3.org/2000/svg"
 width="400.000000pt" height="400.000000pt" viewBox="0 0 400.000000 400.000000"
 preserveAspectRatio="xMidYMid meet">
<metadata>
Created by potrace 1.11, written by Peter Selinger 2001-2013
</metadata>
<g transform="translate(0.000000,400.000000) scale(0.100000,-0.100000)"
fill="#000000" stroke="none">
<path d="M1265 3735 l-190 -93 113 -1 c106 -1 116 1 172 29 33 17 72 30 87 30
29 1 129 49 104 50 -12 0 -12 3 -3 12 10 10 17 10 32 0 11 -6 41 -12 67 -12
32 0 56 -7 73 -20 l25 -20 -32 0 c-18 0 -33 -3 -33 -7 0 -5 20 -20 44 -35 39
-25 52 -28 132 -28 61 0 84 3 74 10 -11 7 5 10 53 10 71 0 162 28 122 38 -11
2 -70 2 -132 0 -62 -2 -113 -1 -113 4 0 4 15 8 33 8 l32 0 -25 20 c-16 13 -41
20 -71 20 -25 0 -54 6 -64 14 -17 12 -5 13 90 10 61 -3 262 -9 447 -14 307 -9
339 -11 369 -29 l32 -20 -39 -4 c-22 -2 -7 -4 36 -5 41 -1 99 1 128 5 l53 6
-28 18 c-16 11 -46 19 -72 19 -34 0 -58 9 -107 40 l-64 40 -577 -1 -578 0
-190 -94z"/>
<path d="M2469 3680 c19 -17 38 -20 110 -20 l86 1 -24 19 c-19 17 -38 20 -110
20 l-86 -1 24 -19z"/>
<path d="M3400 3695 c0 -2 13 -11 30 -20 19 -10 57 -15 112 -15 l83 1 -24 19
c-19 17 -38 20 -112 20 -49 0 -89 -2 -89 -5z"/>
<path d="M2745 3627 c28 -19 168 -109 311 -201 l262 -167 -5 -107 c-2 -59 -10
-343 -18 -631 -8 -288 -16 -525 -17 -526 -2 -2 -106 -64 -233 -140 -126 -76
-231 -141 -233 -144 -1 -4 -16 -5 -33 -3 l-30 4 8 272 c5 149 8 460 8 690 l0
419 -388 259 -388 259 -86 -3 -86 -3 427 -284 426 -284 0 -264 0 -263 -22 14
c-13 7 -160 94 -327 191 -168 98 -419 251 -559 342 l-254 165 -46 -20 c-26
-11 -294 -140 -596 -286 -302 -147 -550 -265 -551 -264 -1 2 88 160 199 352
l201 349 255 126 255 126 -110 3 c-101 3 -108 4 -85 17 23 13 15 14 -81 15
-61 0 -120 -5 -140 -12 -32 -12 -26 -13 76 -18 l110 -5 -176 -86 -175 -86
-247 -430 -247 -430 0 -125 c0 -69 3 -267 7 -441 6 -299 7 -317 25 -317 16 0
18 -10 18 -104 l0 -104 81 -141 82 -141 53 0 c30 0 54 3 54 7 0 3 -49 90 -110
193 -108 183 -110 187 -110 248 0 58 -2 62 -23 62 -22 0 -22 1 -19 118 5 227
21 664 24 667 9 8 1255 608 1263 608 13 0 405 -253 405 -261 0 -4 -143 -87
-318 -184 -278 -155 -418 -226 -839 -424 -70 -32 -94 -49 -98 -66 -2 -13 -6
-121 -7 -241 l-3 -217 24 0 24 0 -7 -255 -6 -255 48 0 49 0 6 143 c4 78 7 193
7 255 l0 112 -26 0 c-22 0 -25 3 -20 23 3 12 6 106 6 208 l0 187 48 20 c26 12
134 62 241 111 107 50 198 91 203 91 5 0 7 -8 4 -17 -2 -10 -6 -155 -8 -323
l-3 -305 22 -3 23 -3 0 -250 0 -249 50 0 50 0 2 179 3 178 286 -176 286 -176
-86 -5 -85 -5 129 -81 c72 -45 205 -129 297 -188 l167 -108 374 191 374 191
93 0 93 0 204 106 c113 58 207 103 210 100 3 -2 -18 -47 -46 -99 -28 -52 -51
-97 -51 -101 0 -3 24 -6 53 -6 l52 0 73 134 72 134 0 121 0 121 -25 0 -25 0 0
438 -1 437 -208 368 -208 368 -264 170 -264 169 -90 0 -90 0 50 -33z m851
-854 l174 -308 -6 -382 -7 -383 21 0 c20 0 22 -5 22 -68 l0 -67 -358 -183
-359 -182 -93 0 -93 0 -262 -135 -262 -135 -189 121 c-104 66 -196 127 -204
135 -12 12 -3 14 70 14 46 0 80 3 77 7 -8 7 4 14 353 200 317 169 489 269 515
298 11 12 99 69 195 125 96 56 178 105 182 109 6 5 38 929 38 1100 0 30 3 52
6 48 3 -3 85 -144 180 -314z m-1253 -187 l326 -190 -6 -353 -6 -353 21 0 c17
0 22 -6 22 -25 0 -29 16 -19 -379 -230 -161 -86 -299 -155 -306 -153 -7 2
-155 91 -329 198 -223 137 -316 200 -316 212 0 12 -8 18 -24 18 l-23 0 4 288
c3 158 8 316 11 351 l7 64 325 183 c179 101 330 182 336 181 6 -1 158 -87 337
-191z"/>
<path d="M1520 3620 c20 -16 41 -20 108 -20 45 0 82 3 82 6 0 22 -42 33 -125
33 l-90 1 25 -20z"/>
<path d="M2474 3625 c14 -11 46 -15 110 -15 81 0 88 1 70 15 -13 10 -45 14
-109 14 -81 0 -88 -1 -71 -14z"/>
<path d="M184 1193 c4 -10 59 -107 123 -215 l115 -198 73 0 c67 0 73 2 79 23
3 12 6 106 6 210 l0 187 -49 0 -49 0 -1 -152 c-1 -84 -3 -154 -6 -156 -2 -2
-36 53 -77 123 -117 203 -106 190 -167 193 -48 3 -53 1 -47 -15z"/>
<path d="M1083 1103 c4 -54 7 -112 7 -129 0 -28 11 -38 120 -113 l120 -82 81
3 82 3 -157 108 -156 109 0 99 0 99 -52 0 -51 0 6 -97z"/>
<path d="M3409 1168 c-7 -18 -55 -110 -106 -205 -51 -94 -93 -174 -93 -177 0
-3 24 -6 53 -6 l52 0 102 193 c56 105 105 200 109 210 5 15 -1 17 -49 17 -52
0 -55 -1 -68 -32z"/>
<path d="M639 728 c27 -48 34 -54 73 -59 32 -4 150 -68 473 -257 l430 -252 65
0 c36 0 244 -7 462 -15 l398 -14 466 236 c386 196 470 242 485 267 25 41 24
46 -11 46 -16 0 -30 2 -30 4 0 2 12 24 26 50 l26 46 -56 0 -56 0 -30 -52 -30
-53 23 -6 c17 -4 -59 -47 -323 -180 -190 -96 -379 -191 -420 -213 l-75 -38
-310 216 c-255 178 -315 216 -343 216 -24 0 -58 16 -117 55 l-84 55 -82 0 -82
0 74 -55 c59 -43 82 -55 112 -55 32 0 76 -27 320 -197 155 -108 293 -205 307
-216 l25 -20 -160 7 c-88 3 -249 9 -359 12 l-198 7 -357 208 c-289 169 -363
209 -393 209 -51 0 -128 47 -128 77 0 22 -4 23 -76 23 l-76 0 31 -52z"/>
</g>
</svg>
